<?xml version="1.0" encoding="UTF-8" standalone="no"?>
<svg width="151px" height="49px" viewBox="0 0 151 49" version="1.1" xmlns="http://www.w3.org/2000/svg" xmlns:xlink="http://www.w3.org/1999/xlink" xmlns:sketch="http://www.bohemiancoding.com/sketch/ns">
    <!-- Generator: sketchtool 3.5.1 (25234) - http://www.bohemiancoding.com/sketch -->
    <title>Logotype</title>
    <desc>Created with sketchtool.</desc>
    <defs></defs>
    <g id="Page-1" stroke="none" stroke-width="1" fill="none" fill-rule="evenodd" sketch:type="MSPage">
        <g id="Tablet-768" sketch:type="MSArtboardGroup" transform="translate(-42.000000, -31.000000)" fill="#B88B58">
            <g id="Logotype" sketch:type="MSLayerGroup" transform="translate(42.000000, 31.000000)">
                <path d="M18.7316888,43.5658577 L16.695834,43.5658577 L21.8049114,27.8299291 L31.1820462,27.8299291 C31.4349205,27.8299291 31.6746351,27.7071558 31.8234287,27.5022842 C31.9716241,27.2968145 32.012748,27.0315283 31.9342388,26.7918136 L30.9771747,23.8693286 C30.8701031,23.5433287 30.5674316,23.3241012 30.2249821,23.3241012 L6.68105525,23.3241012 L4.51225823,21.6220225 L4.51225823,18.6483943 L6.68180296,16.9461661 L20.4556006,16.9461661 L19.371875,19.9842465 C19.2855897,20.2265033 19.3223768,20.4964253 19.4705722,20.7066804 C19.6187676,20.9164868 19.8602768,21.0419519 20.1174878,21.0419519 L23.2707149,21.0419519 C23.6104727,21.0419519 23.9117984,20.8258647 24.0202158,20.5049492 L28.5465309,7.18396253 L30.3757197,12.3064987 C30.3899261,12.3470244 30.376916,12.3787271 30.3631582,12.3981675 C30.34955,12.4177574 30.3239784,12.4407867 30.2393381,12.4407867 C29.77905,12.4407867 29.3755877,12.7349344 29.233673,13.1730903 L28.3509309,15.9113405 C28.2734685,16.1513542 28.3157887,16.4163414 28.4642832,16.6206147 C28.6127777,16.8244395 28.8521932,16.9461661 29.1044694,16.9461661 L52.8386127,16.9461661 L52.8386127,18.520387 C52.8386127,18.956898 53.1940723,19.3120585 53.6305833,19.3120585 L56.5566573,19.3120585 C56.9931682,19.3120585 57.3480296,18.956898 57.3480296,18.520387 L57.3480296,16.364301 C57.3480296,15.7085625 57.0715278,15.1588488 56.5633866,14.7908278 C56.9607178,14.4772397 57.3480296,13.9460692 57.3480296,13.066617 L57.3480296,11.1025419 C57.3480296,10.666031 56.9931682,10.3111695 56.5566573,10.3111695 L53.6305833,10.3111695 C53.1940723,10.3111695 52.8386127,10.666031 52.8386127,11.1025419 L52.8386127,12.4407867 L35.172854,12.4407867 L32.574425,4.50552888 L33.3744707,4.50552888 C33.8109817,4.50552888 34.1659927,4.1505179 34.1659927,3.71415648 L34.1659927,0.791821016 C34.1659927,0.355310054 33.8109817,0 33.3744707,0 L30.8419894,0 C29.5741785,0 28.8895786,0.512777009 28.5232025,1.0156843 C28.1189924,0.513823798 27.3995494,0 26.1490853,0 L23.7483498,0 C23.3118388,0 22.9566783,0.355310054 22.9566783,0.791821016 L22.9566783,3.71415648 C22.9566783,4.1505179 23.3118388,4.50552888 23.7483498,4.50552888 L24.5485451,4.50552888 L21.9493683,12.4407867 L5.71875719,12.4407867 C5.54214895,12.4407867 5.36853154,12.5006033 5.23020586,12.6094693 L0.303568775,16.4751111 C0.110510997,16.6261478 0,16.8531514 0,17.0981 L0,23.1724663 C0,23.4175645 0.110510997,23.6444186 0.303269692,23.7951562 L5.23155173,27.6624429 C5.37002695,27.7701126 5.54319574,27.8299291 5.71875719,27.8299291 L16.9093789,27.8299291 L14.8202874,34.2081633 L4.51225823,34.2081633 L4.51225823,32.5703873 C4.51225823,32.1338764 4.1573968,31.779015 3.72088584,31.779015 L0.793615511,31.779015 C0.581865075,31.779015 0.382975188,31.8618608 0.233134837,32.0112525 C0.0837431103,32.1612424 0.00149541268,32.3605809 0.00179449522,32.5723314 L0.00403761425,34.4982734 C0.00403761425,35.4136155 0.372656841,35.9522631 0.747108177,36.2630099 C0.371011887,36.5481851 0.00239266029,37.0382318 0.00239266029,37.863251 L0.00239266029,39.9885315 C0.00239266029,40.4250425 0.357702714,40.7799039 0.794213677,40.7799039 L3.72088584,40.7799039 C4.1573968,40.7799039 4.51225823,40.4250425 4.51225823,39.9885315 L4.51225823,38.7138417 L13.3444646,38.7138417 L11.7554391,43.5658577 L9.72631364,43.5658577 C9.28980268,43.5658577 8.93464216,43.9207192 8.93464216,44.3572301 L8.93464216,47.2795656 C8.93464216,47.7160766 9.28980268,48.070938 9.72631364,48.070938 L12.2734501,48.070938 C13.4331426,48.070938 14.1069756,47.5710215 14.4899507,47.0758904 C14.829858,47.5722179 15.4550901,48.070938 16.5945946,48.070938 L18.7316888,48.070938 C19.1681998,48.070938 19.5235098,47.7160766 19.5235098,47.2795656 L19.5235098,44.3572301 C19.5235098,43.9207192 19.1681998,43.5658577 18.7316888,43.5658577 Z M57.0479003,27.3566609 L52.1230577,23.4922155 C51.9841339,23.3839476 51.8105165,23.3241311 51.6348055,23.3241311 L38.734628,23.3241311 L37.5327648,19.7589177 C37.4256932,19.4354599 37.1237694,19.2181765 36.7825163,19.2181765 L33.6802826,19.2181765 C33.4268102,19.2181765 33.1870955,19.3408003 33.0389001,19.54627 C32.8907047,19.7514406 32.8495809,20.0176241 32.9292864,20.2576378 L37.5341107,34.2080437 L23.1998324,34.2080437 C22.857682,34.2080437 22.5556086,34.426673 22.448537,34.751028 L21.4814537,37.6727653 C21.4017482,37.9136763 21.4425729,38.1795607 21.5910674,38.3850304 C21.7392628,38.5906496 21.9792765,38.7132735 22.2330481,38.7132735 L42.6538055,38.7132735 C42.9053339,38.7132735 43.1444504,38.591846 43.2926458,38.3895166 C43.4415889,38.1864396 43.4845073,37.9217515 43.4085403,37.6808406 L40.2135911,27.829959 L50.6696661,27.829959 L52.8386127,29.5311405 L52.8386127,32.5068622 L50.6696661,34.2080437 L46.3501666,34.2080437 C46.0986382,34.2080437 45.8593722,34.328873 45.7111768,34.5319501 C45.5623832,34.7348776 45.5194649,34.9989675 45.5954318,35.2380839 L46.5176528,38.1602699 C46.621584,38.4909056 46.9254519,38.7132735 47.2723876,38.7132735 L51.633011,38.7132735 C51.8099183,38.7132735 51.9835357,38.653457 52.1218614,38.5444414 L57.0484985,34.6795473 C57.2409581,34.5276134 57.35117,34.3009088 57.35117,34.0568575 L57.35117,27.9793508 C57.35117,27.7352994 57.2409581,27.5085949 57.0479003,27.3566609 Z M47.6228974,43.5658577 L45.3557022,43.5658577 L44.6178656,41.530302 C44.5051115,41.2177607 44.2055803,41.0078048 43.8737482,41.0078048 L40.758355,41.0078048 C40.5005459,41.0078048 40.258289,41.133569 40.1100936,41.3453194 C39.9618982,41.5564717 39.9264569,41.8272909 40.0142376,42.0695478 L40.5566238,43.5658577 L37.9967764,43.5658577 C37.5602654,43.5658577 37.2052545,43.9207192 37.2052545,44.3572301 L37.2052545,47.2795656 C37.2052545,47.7160766 37.5602654,48.070938 37.9967764,48.070938 L40.5341926,48.070938 C41.7110824,48.070938 42.3898502,47.5747601 42.7734236,47.0821711 C43.2036538,47.7223573 43.9097877,48.070938 44.7890904,48.070938 L47.6228974,48.070938 C48.0594083,48.070938 48.4142698,47.7160766 48.4142698,47.2795656 L48.4142698,44.3572301 C48.4142698,43.9207192 48.0594083,43.5658577 47.6228974,43.5658577 Z" id="Fill-1" sketch:type="MSShapeGroup"></path>
                <path d="M94.138,24.06 C93.962,23.18 93.236,22.036 91.344,22.036 C89.87,22.036 88.627,23.092 88.627,24.478 C88.627,25.655 89.43,26.458 90.673,26.711 L91.762,26.931 C92.367,27.052 92.708,27.404 92.708,27.855 C92.708,28.405 92.257,28.812 91.443,28.812 C90.343,28.812 89.804,28.119 89.738,27.349 L88.33,27.723 C88.451,28.834 89.364,30.165 91.432,30.165 C93.247,30.165 94.248,28.955 94.248,27.756 C94.248,26.656 93.489,25.732 92.07,25.457 L90.981,25.248 C90.409,25.138 90.134,24.797 90.134,24.368 C90.134,23.851 90.618,23.378 91.355,23.378 C92.345,23.378 92.697,24.049 92.774,24.478 L94.138,24.06 Z M103.939,25.754 L103.939,23.521 L105.138,23.521 C105.897,23.521 106.359,23.95 106.359,24.643 C106.359,25.314 105.897,25.754 105.138,25.754 L103.939,25.754 Z M105.325,27.063 C106.865,27.063 107.888,26.051 107.888,24.632 C107.888,23.224 106.865,22.201 105.325,22.201 L102.41,22.201 L102.41,30 L103.928,30 L103.928,27.063 L105.325,27.063 Z M119.768,30 L121.462,30 L119.79,26.81 C120.813,26.513 121.451,25.688 121.451,24.599 C121.451,23.246 120.483,22.201 118.965,22.201 L115.918,22.201 L115.918,30 L117.447,30 L117.447,26.997 L118.239,26.997 L119.768,30 Z M117.447,25.688 L117.447,23.521 L118.679,23.521 C119.449,23.521 119.9,23.95 119.9,24.61 C119.9,25.248 119.449,25.688 118.679,25.688 L117.447,25.688 Z M134.42,30 L136.323,30 L133.21,25.6 L136.301,22.201 L134.31,22.201 L131.186,25.732 L131.186,22.201 L129.668,22.201 L129.668,30 L131.186,30 L131.186,27.833 L132.154,26.766 L134.42,30 Z M150.876,30 L150.876,22.201 L149.358,22.201 L149.358,27.36 L146.113,22.201 L144.221,22.201 L144.221,30 L145.739,30 L145.739,24.467 L149.281,30 L150.876,30 Z" id="SPRKN" sketch:type="MSShapeGroup"></path>
            </g>
        </g>
    </g>
</svg>