<?xml version="1.0" encoding="UTF-8" standalone="no"?>
<svg width="114px" height="27px" viewBox="0 0 114 27" version="1.1" xmlns="http://www.w3.org/2000/svg" xmlns:xlink="http://www.w3.org/1999/xlink" xmlns:sketch="http://www.bohemiancoding.com/sketch/ns">
    <!-- Generator: sketchtool 3.5.1 (25234) - http://www.bohemiancoding.com/sketch -->
    <title>Logotype</title>
    <desc>Created with sketchtool.</desc>
    <defs></defs>
    <g id="Page-1" stroke="none" stroke-width="1" fill="none" fill-rule="evenodd" sketch:type="MSPage">
        <g id="Small-320" sketch:type="MSArtboardGroup" transform="translate(-25.000000, -22.000000)" fill="#B88B58">
            <g id="Header" sketch:type="MSLayerGroup" transform="translate(25.000000, 22.000000)">
                <g id="Logotype" sketch:type="MSShapeGroup">
                    <path d="M10.1250306,23.5922205 L9.02459102,23.5922205 L11.7861982,15.0864867 L16.8548163,15.0864867 C16.9915023,15.0864867 17.1210751,15.020124 17.2015024,14.9093849 C17.2816064,14.7983225 17.3038351,14.6549275 17.2613985,14.5253546 L16.7440771,12.9456652 C16.6862018,12.7694526 16.5225989,12.6509537 16.3374949,12.6509537 L3.61130754,12.6509537 L2.43900875,11.7309299 L2.43900875,10.1235962 L3.6117117,9.20349154 L11.0568558,9.20349154 L10.4710702,10.8456637 C10.4244304,10.9766106 10.4443149,11.1225114 10.5244189,11.2361605 C10.6045229,11.349567 10.7350657,11.4173846 10.8740959,11.4173846 L12.5785082,11.4173846 C12.7621573,11.4173846 12.9250327,11.3005832 12.9836355,11.1271188 L15.4302424,3.92673241 L16.418973,6.69561438 C16.426652,6.71751971 16.4196196,6.73465598 16.4121831,6.74516407 C16.4048275,6.755753 16.3910053,6.76820104 16.3452547,6.76820104 C16.0964554,6.76820104 15.8783721,6.92719654 15.801663,7.16403275 L15.3245149,8.64413777 C15.2826442,8.77387228 15.3055195,8.91710565 15.3857851,9.02752143 C15.4660508,9.13769472 15.595462,9.20349154 15.7318247,9.20349154 L28.5608296,9.20349154 L28.5608296,10.0544044 C28.5608296,10.2903515 28.752966,10.4823262 28.9889131,10.4823262 L30.5705424,10.4823262 C30.8064895,10.4823262 30.9983025,10.2903515 30.9983025,10.0544044 L30.9983025,8.88897629 C30.9983025,8.5345303 30.8488452,8.23739382 30.5741798,8.03846758 C30.788949,7.86896399 30.9983025,7.58185061 30.9983025,7.10648074 L30.9983025,6.04484023 C30.9983025,5.80889317 30.8064895,5.61708009 30.5705424,5.61708009 L28.9889131,5.61708009 C28.752966,5.61708009 28.5608296,5.80889317 28.5608296,6.04484023 L28.5608296,6.76820104 L19.0119657,6.76820104 L17.6074381,2.47895997 L18.0398864,2.47895997 C18.2758335,2.47895997 18.4677274,2.28706606 18.4677274,2.05119984 L18.4677274,0.47159127 C18.4677274,0.235644212 18.2758335,0.0435886419 18.0398864,0.0435886419 L16.6710055,0.0435886419 C15.9857163,0.0435886419 15.6156698,0.320759749 15.4176327,0.592595979 C15.1991453,0.321325569 14.8102651,0.0435886419 14.1343523,0.0435886419 L12.8366839,0.0435886419 C12.6007369,0.0435886419 12.4087621,0.235644212 12.4087621,0.47159127 L12.4087621,2.05119984 C12.4087621,2.28706606 12.6007369,2.47895997 12.8366839,2.47895997 L13.2692131,2.47895997 L11.8642814,6.76820104 L3.09115704,6.76820104 C2.99569507,6.76820104 2.90184974,6.80053363 2.82708063,6.85937894 L0.164087882,8.94887241 C0.0597344556,9.0305122 0,9.15321437 0,9.28561631 L0,12.5689906 C0,12.7014734 0.0597344556,12.8240947 0.163926219,12.9055728 L2.82780811,14.9959554 C2.90265805,15.0541541 2.99626089,15.0864867 3.09115704,15.0864867 L9.14001836,15.0864867 L8.01080273,18.5341105 L2.43900875,18.5341105 L2.43900875,17.6488443 C2.43900875,17.4128972 2.24719567,17.2210841 2.01124861,17.2210841 L0.428972606,17.2210841 C0.314515246,17.2210841 0.207009392,17.2658648 0.12601626,17.3466154 C0.0452656226,17.4276894 0.00080831469,17.5354377 0.000969977628,17.6498951 L0.00218244966,18.6909236 C0.00218244966,19.185693 0.201432021,19.4768479 0.403834019,19.6448157 C0.200542875,19.7989613 0.0012933035,20.0638461 0.0012933035,20.5097933 L0.0012933035,21.6585701 C0.0012933035,21.8945172 0.193348874,22.0863302 0.429295932,22.0863302 L2.01124861,22.0863302 C2.24719567,22.0863302 2.43900875,21.8945172 2.43900875,21.6585701 L2.43900875,20.9695627 L7.21307697,20.9695627 L6.35416178,23.5922205 L5.25735957,23.5922205 C5.02141252,23.5922205 4.82943778,23.7840336 4.82943778,24.0199806 L4.82943778,25.5995892 C4.82943778,25.8355363 5.02141252,26.0273493 5.25735957,26.0273493 L6.63416199,26.0273493 C7.26101003,26.0273493 7.62523663,25.7571297 7.83224602,25.4894967 C8.01597595,25.7577764 8.35393232,26.0273493 8.96986811,26.0273493 L10.1250306,26.0273493 C10.3609777,26.0273493 10.5530333,25.8355363 10.5530333,25.5995892 L10.5530333,24.0199806 C10.5530333,23.7840336 10.3609777,23.5922205 10.1250306,23.5922205 Z M30.8360738,14.8306713 L28.174051,12.7418244 C28.0989586,12.6833024 28.0051132,12.6509699 27.9101363,12.6509699 L20.9372096,12.6509699 L20.2875671,10.7238668 C20.2296917,10.5490283 20.066493,10.4315802 19.8820356,10.4315802 L18.2051868,10.4315802 C18.0681774,10.4315802 17.9386046,10.497862 17.8585006,10.6089245 C17.7783966,10.7198252 17.756168,10.8637052 17.7992511,10.9934398 L20.2882946,18.5340458 L12.5401941,18.5340458 C12.3552517,18.5340458 12.1919721,18.6522214 12.1340968,18.8275449 L11.6113597,20.4068301 C11.5682765,20.5370496 11.5903435,20.680768 11.6706092,20.7918304 C11.7507131,20.9029737 11.8804476,20.9692555 12.0176187,20.9692555 L23.0556407,20.9692555 C23.1915993,20.9692555 23.3208488,20.9036203 23.4009528,20.7942554 C23.4814609,20.6844862 23.5046595,20.5414145 23.4635972,20.411195 L21.7366328,15.0865029 L27.38845,15.0865029 L28.5608296,16.0060416 L28.5608296,17.614507 L27.38845,18.5340458 L25.053633,18.5340458 C24.9176745,18.5340458 24.7883441,18.5993577 24.7082401,18.7091268 C24.6278128,18.8188151 24.6046142,18.9615635 24.6456766,19.090813 L25.1441642,20.6703407 C25.2003421,20.8490591 25.3645916,20.9692555 25.5521207,20.9692555 L27.9091663,20.9692555 C28.0047899,20.9692555 28.0986353,20.9369229 28.1734044,20.8779968 L30.8363971,18.7889075 C30.9404272,18.7067827 31,18.5842422 31,18.4523252 L31,15.1672535 C31,15.0353365 30.9404272,14.912796 30.8360738,14.8306713 Z M25.7415815,23.5922205 L24.5160956,23.5922205 L24.1172732,22.4919425 C24.0563262,22.3230048 23.8944208,22.2095174 23.7150558,22.2095174 L22.0310938,22.2095174 C21.8917403,22.2095174 21.7607933,22.2774967 21.6806894,22.391954 C21.6005854,22.5060881 21.5814283,22.6524738 21.6288764,22.7834208 L21.9220521,23.5922205 L20.538379,23.5922205 C20.302432,23.5922205 20.1105381,23.7840336 20.1105381,24.0199806 L20.1105381,25.5995892 C20.1105381,25.8355363 20.302432,26.0273493 20.538379,26.0273493 L21.9099274,26.0273493 C22.5460711,26.0273493 22.9129651,25.7591505 23.1202978,25.4928917 C23.35285,25.8389312 23.7345362,26.0273493 24.2098252,26.0273493 L25.7415815,26.0273493 C25.9775286,26.0273493 26.1693417,25.8355363 26.1693417,25.5995892 L26.1693417,24.0199806 C26.1693417,23.7840336 25.9775286,23.5922205 25.7415815,23.5922205 Z" id="Fill-1"></path>
                    <path d="M57.138,13.06 C56.962,12.18 56.236,11.036 54.344,11.036 C52.87,11.036 51.627,12.092 51.627,13.478 C51.627,14.655 52.43,15.458 53.673,15.711 L54.762,15.931 C55.367,16.052 55.708,16.404 55.708,16.855 C55.708,17.405 55.257,17.812 54.443,17.812 C53.343,17.812 52.804,17.119 52.738,16.349 L51.33,16.723 C51.451,17.834 52.364,19.165 54.432,19.165 C56.247,19.165 57.248,17.955 57.248,16.756 C57.248,15.656 56.489,14.732 55.07,14.457 L53.981,14.248 C53.409,14.138 53.134,13.797 53.134,13.368 C53.134,12.851 53.618,12.378 54.355,12.378 C55.345,12.378 55.697,13.049 55.774,13.478 L57.138,13.06 Z M66.939,14.754 L66.939,12.521 L68.138,12.521 C68.897,12.521 69.359,12.95 69.359,13.643 C69.359,14.314 68.897,14.754 68.138,14.754 L66.939,14.754 Z M68.325,16.063 C69.865,16.063 70.888,15.051 70.888,13.632 C70.888,12.224 69.865,11.201 68.325,11.201 L65.41,11.201 L65.41,19 L66.928,19 L66.928,16.063 L68.325,16.063 Z M82.768,19 L84.462,19 L82.79,15.81 C83.813,15.513 84.451,14.688 84.451,13.599 C84.451,12.246 83.483,11.201 81.965,11.201 L78.918,11.201 L78.918,19 L80.447,19 L80.447,15.997 L81.239,15.997 L82.768,19 Z M80.447,14.688 L80.447,12.521 L81.679,12.521 C82.449,12.521 82.9,12.95 82.9,13.61 C82.9,14.248 82.449,14.688 81.679,14.688 L80.447,14.688 Z M97.42,19 L99.323,19 L96.21,14.6 L99.301,11.201 L97.31,11.201 L94.186,14.732 L94.186,11.201 L92.668,11.201 L92.668,19 L94.186,19 L94.186,16.833 L95.154,15.766 L97.42,19 Z M113.876,19 L113.876,11.201 L112.358,11.201 L112.358,16.36 L109.113,11.201 L107.221,11.201 L107.221,19 L108.739,19 L108.739,13.467 L112.281,19 L113.876,19 Z" id="SPRKN"></path>
                </g>
            </g>
        </g>
    </g>
</svg>